<?xml version="1.0" encoding="UTF-8" standalone="no"?>
<!DOCTYPE svg PUBLIC "-//W3C//DTD SVG 1.1//EN"
 "http://www.w3.org/Graphics/SVG/1.1/DTD/svg11.dtd">
<!-- Generated by graphviz version 2.38.0 (20140413.2041)
 -->
<!-- Title: graphname Pages: 1 -->
<svg width="272pt" height="260pt"
 viewBox="0.00 0.00 272.00 260.00" xmlns="http://www.w3.org/2000/svg" xmlns:xlink="http://www.w3.org/1999/xlink">
<g id="graph0" class="graph" transform="scale(1 1) rotate(0) translate(4 256)">
<title>graphname</title>
<polygon fill="white" stroke="none" points="-4,4 -4,-256 268,-256 268,4 -4,4"/>
<!-- A -->
<g id="node1" class="node"><title>A</title>
<ellipse fill="none" stroke="black" cx="146" cy="-162" rx="27" ry="18"/>
<text text-anchor="middle" x="146" y="-157.8" font-family="Times,serif" font-size="14.00">A</text>
</g>
<!-- D -->
<g id="node4" class="node"><title>D</title>
<ellipse fill="none" stroke="black" cx="237" cy="-90" rx="27" ry="18"/>
<text text-anchor="middle" x="237" y="-85.8" font-family="Times,serif" font-size="14.00">D</text>
</g>
<!-- A&#45;&gt;D -->
<g id="edge1" class="edge"><title>A&#45;&gt;D</title>
<path fill="none" stroke="black" d="M171.271,-141.56C183.882,-131.86 199.095,-120.158 211.708,-110.456"/>
<polygon fill="black" stroke="black" points="168.909,-138.962 163.116,-147.834 173.177,-144.511 168.909,-138.962"/>
<polygon fill="black" stroke="black" points="214.168,-112.979 219.96,-104.107 209.9,-107.43 214.168,-112.979"/>
</g>
<!-- E -->
<g id="node5" class="node"><title>E</title>
<ellipse fill="none" stroke="black" cx="182" cy="-18" rx="27" ry="18"/>
<text text-anchor="middle" x="182" y="-13.8" font-family="Times,serif" font-size="14.00">E</text>
</g>
<!-- A&#45;&gt;E -->
<g id="edge2" class="edge"><title>A&#45;&gt;E</title>
<path fill="none" stroke="black" d="M151.791,-144.417C155.299,-134.031 159.716,-120.325 163,-108 168.456,-87.5182 173.412,-64.0616 176.893,-46.3729"/>
<polygon fill="black" stroke="black" points="180.401,-46.665 178.861,-36.1827 173.528,-45.3374 180.401,-46.665"/>
</g>
<!-- G2 -->
<g id="node7" class="node"><title>G2</title>
<ellipse fill="none" stroke="black" cx="127" cy="-90" rx="27" ry="18"/>
<text text-anchor="middle" x="127" y="-85.8" font-family="Times,serif" font-size="14.00">G2</text>
</g>
<!-- A&#45;&gt;G2 -->
<g id="edge3" class="edge"><title>A&#45;&gt;G2</title>
<path fill="none" stroke="black" d="M138.709,-134.137C137.055,-128.045 135.307,-121.604 133.68,-115.61"/>
<polygon fill="black" stroke="black" points="135.403,-135.321 141.401,-144.055 142.159,-133.487 135.403,-135.321"/>
<ellipse fill="none" stroke="black" cx="132.605" cy="-111.649" rx="4.00001" ry="4.00001"/>
</g>
<!-- G3 -->
<g id="node8" class="node"><title>G3</title>
<ellipse fill="none" stroke="black" cx="55" cy="-90" rx="27" ry="18"/>
<text text-anchor="middle" x="55" y="-85.8" font-family="Times,serif" font-size="14.00">G3</text>
</g>
<!-- A&#45;&gt;G3 -->
<g id="edge4" class="edge"><title>A&#45;&gt;G3</title>
<path fill="none" stroke="black" d="M120.729,-141.56C107.512,-131.394 91.4366,-119.028 78.4919,-109.071"/>
<polygon fill="black" stroke="black" points="118.823,-144.511 128.884,-147.834 123.091,-138.962 118.823,-144.511"/>
<ellipse fill="none" stroke="black" cx="75.2102" cy="-106.546" rx="4.00002" ry="4.00002"/>
</g>
<!-- B -->
<g id="node2" class="node"><title>B</title>
<ellipse fill="none" stroke="black" cx="237" cy="-162" rx="27" ry="18"/>
<text text-anchor="middle" x="237" y="-157.8" font-family="Times,serif" font-size="14.00">B</text>
</g>
<!-- B&#45;&gt;D -->
<g id="edge5" class="edge"><title>B&#45;&gt;D</title>
<path fill="none" stroke="black" d="M237,-135.64C237,-130.063 237,-124.132 237,-118.476"/>
<ellipse fill="none" stroke="black" cx="237" cy="-139.697" rx="4" ry="4"/>
<polygon fill="black" stroke="black" points="240.5,-118.104 237,-108.104 233.5,-118.104 240.5,-118.104"/>
</g>
<!-- C -->
<g id="node3" class="node"><title>C</title>
<ellipse fill="none" stroke="black" cx="27" cy="-234" rx="27" ry="18"/>
<text text-anchor="middle" x="27" y="-229.8" font-family="Times,serif" font-size="14.00">C</text>
</g>
<!-- C&#45;&gt;E -->
<g id="edge6" class="edge"><title>C&#45;&gt;E</title>
<path fill="none" stroke="black" d="M20.0177,-216.487C7.92336,-185.017 -12.7433,-115.701 19,-72 47.5337,-32.718 105.908,-21.9793 144.494,-19.3567"/>
<polygon fill="black" stroke="black" points="145.009,-22.8346 154.812,-18.8153 144.642,-15.8443 145.009,-22.8346"/>
</g>
<!-- G1 -->
<g id="node6" class="node"><title>G1</title>
<ellipse fill="none" stroke="black" cx="55" cy="-162" rx="27" ry="18"/>
<text text-anchor="middle" x="55" y="-157.8" font-family="Times,serif" font-size="14.00">G1</text>
</g>
<!-- C&#45;&gt;G1 -->
<g id="edge7" class="edge"><title>C&#45;&gt;G1</title>
<path fill="none" stroke="black" d="M37.4354,-206.912C40.021,-200.447 42.7804,-193.549 45.3278,-187.181"/>
<polygon fill="black" stroke="black" points="34.0999,-205.826 33.6356,-216.411 40.5992,-208.426 34.0999,-205.826"/>
<ellipse fill="none" stroke="black" cx="46.9264" cy="-183.184" rx="4.00001" ry="4.00001"/>
</g>
<!-- D&#45;&gt;E -->
<g id="edge8" class="edge"><title>D&#45;&gt;E</title>
<path fill="none" stroke="black" d="M218.828,-65.8723C212.81,-58.2132 206.116,-49.6937 200.104,-42.0411"/>
<polygon fill="black" stroke="black" points="216.135,-68.1102 225.066,-73.811 221.64,-63.7854 216.135,-68.1102"/>
<polygon fill="black" stroke="black" points="202.841,-39.8601 193.911,-34.1593 197.337,-44.1849 202.841,-39.8601"/>
</g>
<!-- G1&#45;&gt;G3 -->
<g id="edge9" class="edge"><title>G1&#45;&gt;G3</title>
<path fill="none" stroke="black" d="M55,-135.64C55,-129.348 55,-122.605 55,-116.316"/>
<ellipse fill="none" stroke="black" cx="55" cy="-139.697" rx="4" ry="4"/>
<ellipse fill="none" stroke="black" cx="55" cy="-112.104" rx="4" ry="4"/>
</g>
</g>
</svg>

