<?xml version="1.0" encoding="UTF-8" standalone="no"?>
<!DOCTYPE svg PUBLIC "-//W3C//DTD SVG 1.1//EN"
 "http://www.w3.org/Graphics/SVG/1.1/DTD/svg11.dtd">
<!-- Generated by graphviz version 2.38.0 (20140413.2041)
 -->
<!-- Title: graphname Pages: 1 -->
<svg width="276pt" height="332pt"
 viewBox="0.00 0.00 276.17 332.00" xmlns="http://www.w3.org/2000/svg" xmlns:xlink="http://www.w3.org/1999/xlink">
<g id="graph0" class="graph" transform="scale(1 1) rotate(0) translate(4 328)">
<title>graphname</title>
<polygon fill="white" stroke="none" points="-4,4 -4,-328 272.175,-328 272.175,4 -4,4"/>
<!-- A -->
<g id="node1" class="node"><title>A</title>
<ellipse fill="none" stroke="black" cx="141.175" cy="-306" rx="27" ry="18"/>
<text text-anchor="middle" x="141.175" y="-301.8" font-family="Times,serif" font-size="14.00">A</text>
</g>
<!-- D -->
<g id="node4" class="node"><title>D</title>
<ellipse fill="none" stroke="black" cx="241.175" cy="-234" rx="27" ry="18"/>
<text text-anchor="middle" x="241.175" y="-229.8" font-family="Times,serif" font-size="14.00">D</text>
</g>
<!-- A&#45;&gt;D -->
<g id="edge1" class="edge"><title>A&#45;&gt;D</title>
<path fill="none" stroke="black" d="M167.688,-286.441C182.18,-276.296 200.078,-263.768 214.583,-253.614"/>
<polygon fill="black" stroke="black" points="165.238,-283.883 159.053,-292.485 169.252,-289.618 165.238,-283.883"/>
<polygon fill="black" stroke="black" points="216.929,-256.244 223.115,-247.642 212.915,-250.51 216.929,-256.244"/>
</g>
<!-- E -->
<g id="node5" class="node"><title>E</title>
<ellipse fill="none" stroke="black" cx="114.175" cy="-162" rx="27" ry="18"/>
<text text-anchor="middle" x="114.175" y="-157.8" font-family="Times,serif" font-size="14.00">E</text>
</g>
<!-- A&#45;&gt;E -->
<g id="edge2" class="edge"><title>A&#45;&gt;E</title>
<path fill="none" stroke="black" d="M137.918,-287.871C133.316,-263.67 124.863,-219.211 119.383,-190.393"/>
<polygon fill="black" stroke="black" points="122.75,-189.359 117.443,-180.189 115.873,-190.667 122.75,-189.359"/>
</g>
<!-- G2 -->
<g id="node7" class="node"><title>G2</title>
<ellipse fill="none" stroke="black" cx="169.175" cy="-234" rx="27" ry="18"/>
<text text-anchor="middle" x="169.175" y="-229.8" font-family="Times,serif" font-size="14.00">G2</text>
</g>
<!-- A&#45;&gt;G2 -->
<g id="edge3" class="edge"><title>A&#45;&gt;G2</title>
<path fill="none" stroke="black" d="M151.61,-278.912C155.288,-269.718 159.316,-259.646 162.587,-251.47"/>
<polygon fill="black" stroke="black" points="148.275,-277.826 147.811,-288.411 154.774,-280.426 148.275,-277.826"/>
</g>
<!-- G3 -->
<g id="node8" class="node"><title>G3</title>
<ellipse fill="none" stroke="black" cx="31.1749" cy="-18" rx="27" ry="18"/>
<text text-anchor="middle" x="31.1749" y="-13.8" font-family="Times,serif" font-size="14.00">G3</text>
</g>
<!-- A&#45;&gt;G3 -->
<g id="edge4" class="edge"><title>A&#45;&gt;G3</title>
<path fill="none" stroke="black" d="M104.829,-299.399C77.233,-293.032 41.0794,-279.669 23.1749,-252 -21.5724,-182.848 9.87671,-76.4039 24.6577,-35.6536"/>
<polygon fill="black" stroke="black" points="104.426,-302.89 114.931,-301.511 105.859,-296.038 104.426,-302.89"/>
</g>
<!-- B -->
<g id="node2" class="node"><title>B</title>
<ellipse fill="none" stroke="black" cx="241.175" cy="-306" rx="27" ry="18"/>
<text text-anchor="middle" x="241.175" y="-301.8" font-family="Times,serif" font-size="14.00">B</text>
</g>
<!-- B&#45;&gt;D -->
<g id="edge5" class="edge"><title>B&#45;&gt;D</title>
<path fill="none" stroke="black" d="M241.175,-277.665C241.175,-272.687 241.175,-267.491 241.175,-262.507"/>
<polygon fill="black" stroke="black" points="237.675,-277.697 241.175,-287.697 244.675,-277.697 237.675,-277.697"/>
<polygon fill="black" stroke="black" points="244.675,-262.104 241.175,-252.104 237.675,-262.104 244.675,-262.104"/>
</g>
<!-- C -->
<g id="node3" class="node"><title>C</title>
<ellipse fill="none" stroke="black" cx="59.1749" cy="-234" rx="27" ry="18"/>
<text text-anchor="middle" x="59.1749" y="-229.8" font-family="Times,serif" font-size="14.00">C</text>
</g>
<!-- C&#45;&gt;E -->
<g id="edge6" class="edge"><title>C&#45;&gt;E</title>
<path fill="none" stroke="black" d="M71.1091,-217.811C78.3885,-208.546 87.8375,-196.52 96.0293,-186.094"/>
<polygon fill="black" stroke="black" points="98.8379,-188.185 102.264,-178.159 93.3336,-183.86 98.8379,-188.185"/>
</g>
<!-- G1 -->
<g id="node6" class="node"><title>G1</title>
<ellipse fill="none" stroke="black" cx="59.1749" cy="-90" rx="27" ry="18"/>
<text text-anchor="middle" x="59.1749" y="-85.8" font-family="Times,serif" font-size="14.00">G1</text>
</g>
<!-- C&#45;&gt;G1 -->
<g id="edge7" class="edge"><title>C&#45;&gt;G1</title>
<path fill="none" stroke="black" d="M59.1749,-205.679C59.1749,-176.888 59.1749,-132.424 59.1749,-108.189"/>
<polygon fill="black" stroke="black" points="55.675,-205.871 59.1749,-215.871 62.675,-205.872 55.675,-205.871"/>
</g>
<!-- D&#45;&gt;E -->
<g id="edge8" class="edge"><title>D&#45;&gt;E</title>
<path fill="none" stroke="black" d="M212.156,-217.006C191.623,-205.688 164.185,-190.565 143.568,-179.201"/>
<polygon fill="black" stroke="black" points="210.604,-220.146 221.051,-221.908 213.983,-214.016 210.604,-220.146"/>
<polygon fill="black" stroke="black" points="145.072,-176.034 134.625,-174.272 141.693,-182.164 145.072,-176.034"/>
</g>
<!-- E&#45;&gt;G1 -->
<g id="edge9" class="edge"><title>E&#45;&gt;G1</title>
<path fill="none" stroke="black" d="M96.0031,-137.872C87.8086,-127.443 78.3605,-115.418 71.0858,-106.159"/>
<polygon fill="black" stroke="black" points="93.3103,-140.11 102.241,-145.811 98.8146,-135.785 93.3103,-140.11"/>
</g>
<!-- G1&#45;&gt;G3 -->
<g id="edge10" class="edge"><title>G1&#45;&gt;G3</title>
<path fill="none" stroke="black" d="M48.7395,-62.9115C45.0622,-53.7182 41.0334,-43.6462 37.7629,-35.4699"/>
<polygon fill="black" stroke="black" points="45.5757,-64.4261 52.5393,-72.411 52.075,-61.8263 45.5757,-64.4261"/>
</g>
</g>
</svg>

