<?xml version="1.0" encoding="UTF-8" standalone="no"?>
<!DOCTYPE svg PUBLIC "-//W3C//DTD SVG 1.1//EN"
 "http://www.w3.org/Graphics/SVG/1.1/DTD/svg11.dtd">
<!-- Generated by graphviz version 2.38.0 (20140413.2041)
 -->
<!-- Title: graphname Pages: 1 -->
<svg width="276pt" height="332pt"
 viewBox="0.00 0.00 276.28 332.00" xmlns="http://www.w3.org/2000/svg" xmlns:xlink="http://www.w3.org/1999/xlink">
<g id="graph0" class="graph" transform="scale(1 1) rotate(0) translate(4 328)">
<title>graphname</title>
<polygon fill="white" stroke="none" points="-4,4 -4,-328 272.285,-328 272.285,4 -4,4"/>
<!-- A -->
<g id="node1" class="node"><title>A</title>
<ellipse fill="none" stroke="black" cx="141.285" cy="-306" rx="27" ry="18"/>
<text text-anchor="middle" x="141.285" y="-301.8" font-family="Times,serif" font-size="14.00">A</text>
</g>
<!-- D -->
<g id="node4" class="node"><title>D</title>
<ellipse fill="none" stroke="black" cx="241.285" cy="-234" rx="27" ry="18"/>
<text text-anchor="middle" x="241.285" y="-229.8" font-family="Times,serif" font-size="14.00">D</text>
</g>
<!-- A&#45;&gt;D -->
<g id="edge1" class="edge"><title>A&#45;&gt;D</title>
<path fill="none" stroke="black" d="M167.798,-286.441C182.29,-276.296 200.189,-263.768 214.693,-253.614"/>
<polygon fill="black" stroke="black" points="165.348,-283.883 159.163,-292.485 169.362,-289.618 165.348,-283.883"/>
<polygon fill="black" stroke="black" points="217.039,-256.244 223.225,-247.642 213.025,-250.51 217.039,-256.244"/>
</g>
<!-- E -->
<g id="node5" class="node"><title>E</title>
<ellipse fill="none" stroke="black" cx="114.285" cy="-162" rx="27" ry="18"/>
<text text-anchor="middle" x="114.285" y="-157.8" font-family="Times,serif" font-size="14.00">E</text>
</g>
<!-- A&#45;&gt;E -->
<g id="edge2" class="edge"><title>A&#45;&gt;E</title>
<path fill="none" stroke="black" d="M138.028,-287.871C133.426,-263.67 124.973,-219.211 119.494,-190.393"/>
<polygon fill="black" stroke="black" points="122.86,-189.359 117.553,-180.189 115.983,-190.667 122.86,-189.359"/>
</g>
<!-- G2 -->
<g id="node7" class="node"><title>G2</title>
<ellipse fill="none" stroke="black" cx="169.285" cy="-234" rx="27" ry="18"/>
<text text-anchor="middle" x="169.285" y="-229.8" font-family="Times,serif" font-size="14.00">G2</text>
</g>
<!-- A&#45;&gt;G2 -->
<g id="edge3" class="edge"><title>A&#45;&gt;G2</title>
<path fill="none" stroke="black" d="M151.72,-278.912C154.306,-272.447 157.065,-265.549 159.613,-259.181"/>
<polygon fill="black" stroke="black" points="148.385,-277.826 147.921,-288.411 154.884,-280.426 148.385,-277.826"/>
<ellipse fill="none" stroke="black" cx="161.211" cy="-255.184" rx="4.00001" ry="4.00001"/>
</g>
<!-- G3 -->
<g id="node8" class="node"><title>G3</title>
<ellipse fill="none" stroke="black" cx="31.2849" cy="-18" rx="27" ry="18"/>
<text text-anchor="middle" x="31.2849" y="-13.8" font-family="Times,serif" font-size="14.00">G3</text>
</g>
<!-- A&#45;&gt;G3 -->
<g id="edge4" class="edge"><title>A&#45;&gt;G3</title>
<path fill="none" stroke="black" d="M104.939,-299.399C77.343,-293.032 41.1894,-279.669 23.2849,-252 -18.8405,-186.9 6.56291,-88.7498 22.0165,-43.4727"/>
<polygon fill="black" stroke="black" points="104.536,-302.89 115.041,-301.511 105.969,-296.038 104.536,-302.89"/>
<ellipse fill="none" stroke="black" cx="23.4401" cy="-39.4269" rx="4.00001" ry="4.00001"/>
</g>
<!-- B -->
<g id="node2" class="node"><title>B</title>
<ellipse fill="none" stroke="black" cx="241.285" cy="-306" rx="27" ry="18"/>
<text text-anchor="middle" x="241.285" y="-301.8" font-family="Times,serif" font-size="14.00">B</text>
</g>
<!-- B&#45;&gt;D -->
<g id="edge5" class="edge"><title>B&#45;&gt;D</title>
<path fill="none" stroke="black" d="M241.285,-279.64C241.285,-274.063 241.285,-268.132 241.285,-262.476"/>
<ellipse fill="none" stroke="black" cx="241.285" cy="-283.697" rx="4" ry="4"/>
<polygon fill="black" stroke="black" points="244.785,-262.104 241.285,-252.104 237.785,-262.104 244.785,-262.104"/>
</g>
<!-- C -->
<g id="node3" class="node"><title>C</title>
<ellipse fill="none" stroke="black" cx="59.2849" cy="-234" rx="27" ry="18"/>
<text text-anchor="middle" x="59.2849" y="-229.8" font-family="Times,serif" font-size="14.00">C</text>
</g>
<!-- C&#45;&gt;E -->
<g id="edge6" class="edge"><title>C&#45;&gt;E</title>
<path fill="none" stroke="black" d="M76.2494,-211.409C82.5291,-203.417 89.6723,-194.325 96.0595,-186.196"/>
<ellipse fill="none" stroke="black" cx="73.6904" cy="-214.666" rx="4.00002" ry="4.00002"/>
<polygon fill="black" stroke="black" points="98.9479,-188.185 102.374,-178.159 93.4437,-183.86 98.9479,-188.185"/>
</g>
<!-- G1 -->
<g id="node6" class="node"><title>G1</title>
<ellipse fill="none" stroke="black" cx="59.2849" cy="-90" rx="27" ry="18"/>
<text text-anchor="middle" x="59.2849" y="-85.8" font-family="Times,serif" font-size="14.00">G1</text>
</g>
<!-- C&#45;&gt;G1 -->
<g id="edge7" class="edge"><title>C&#45;&gt;G1</title>
<path fill="none" stroke="black" d="M59.2849,-207.558C59.2849,-181.771 59.2849,-142.104 59.2849,-116.35"/>
<ellipse fill="none" stroke="black" cx="59.285" cy="-211.871" rx="4" ry="4"/>
<ellipse fill="none" stroke="black" cx="59.285" cy="-112.189" rx="4" ry="4"/>
</g>
<!-- D&#45;&gt;E -->
<g id="edge8" class="edge"><title>D&#45;&gt;E</title>
<path fill="none" stroke="black" d="M212.267,-217.006C191.733,-205.688 164.295,-190.565 143.678,-179.201"/>
<polygon fill="black" stroke="black" points="210.714,-220.146 221.161,-221.908 214.093,-214.016 210.714,-220.146"/>
<polygon fill="black" stroke="black" points="145.182,-176.034 134.735,-174.272 141.803,-182.164 145.182,-176.034"/>
</g>
<!-- E&#45;&gt;G1 -->
<g id="edge9" class="edge"><title>E&#45;&gt;G1</title>
<path fill="none" stroke="black" d="M96.1132,-137.872C87.9187,-127.443 78.4706,-115.418 71.1958,-106.159"/>
<polygon fill="black" stroke="black" points="93.4204,-140.11 102.351,-145.811 98.9246,-135.785 93.4204,-140.11"/>
</g>
<!-- G1&#45;&gt;G3 -->
<g id="edge10" class="edge"><title>G1&#45;&gt;G3</title>
<path fill="none" stroke="black" d="M49.6648,-64.9496C46.8701,-57.9628 43.8164,-50.3287 41.015,-43.3252"/>
<ellipse fill="none" stroke="black" cx="51.1637" cy="-68.6971" rx="4.00001" ry="4.00001"/>
<ellipse fill="none" stroke="black" cx="39.3585" cy="-39.1839" rx="4.00001" ry="4.00001"/>
</g>
</g>
</svg>

